<svg width="24" height="24" viewBox="0 0 24 24" fill="none" xmlns="http://www.w3.org/2000/svg">
<g filter="url(#filter0_dd)">
<path d="M21.3333 16C21.3333 17.6569 19.9902 19 18.3333 19H6C4.34315 19 3 17.6569 3 16V6.25C3 5.05 3.67544 4 4.44737 4H19.886C20.6579 4 21.3333 5.05 21.3333 6.25V16Z" fill="#4FAEE7"/>
<rect x="3.83203" y="7.33301" width="16.6667" height="3.33333" fill="white"/>
<rect x="5.5" y="14" width="7.5" height="1.66667" rx="0.833333" fill="white"/>
<path d="M19.8206 18.773H4.50963C3.74408 18.773 3.07422 18.0457 3.07422 17.2146V5.78598C3.07422 4.95481 3.74408 4.22754 4.50963 4.22754H19.8206C20.5862 4.22754 21.256 4.95481 21.256 5.78598V17.2146C21.256 18.0457 20.5862 18.773 19.8206 18.773Z" stroke="#2279C2" stroke-width="1.4" stroke-miterlimit="10"/>
</g>
<defs>
<filter id="filter0_dd" x="-1.8" y="-1" width="27.6" height="27.6" filterUnits="userSpaceOnUse" color-interpolation-filters="sRGB">
<feFlood flood-opacity="0" result="BackgroundImageFix"/>
<feColorMatrix in="SourceAlpha" type="matrix" values="0 0 0 0 0 0 0 0 0 0 0 0 0 0 0 0 0 0 127 0" result="hardAlpha"/>
<feOffset dy="0.8"/>
<feGaussianBlur stdDeviation="0.9"/>
<feColorMatrix type="matrix" values="0 0 0 0 0 0 0 0 0 0 0 0 0 0 0 0 0 0 0.13 0"/>
<feBlend mode="normal" in2="BackgroundImageFix" result="effect1_dropShadow"/>
<feColorMatrix in="SourceAlpha" type="matrix" values="0 0 0 0 0 0 0 0 0 0 0 0 0 0 0 0 0 0 127 0" result="hardAlpha"/>
<feOffset dy="0.15"/>
<feGaussianBlur stdDeviation="0.225"/>
<feColorMatrix type="matrix" values="0 0 0 0 0 0 0 0 0 0 0 0 0 0 0 0 0 0 0.1 0"/>
<feBlend mode="normal" in2="effect1_dropShadow" result="effect2_dropShadow"/>
<feBlend mode="normal" in="SourceGraphic" in2="effect2_dropShadow" result="shape"/>
</filter>
</defs>
</svg>
