<svg width="356" height="178" viewBox="0 0 356 178" fill="none" xmlns="http://www.w3.org/2000/svg">
<path opacity="0.5" d="M165.082 155.667C201.902 155.667 231.75 125.819 231.75 89C231.75 52.1806 201.902 22.3326 165.082 22.3326C128.263 22.3326 98.415 52.1806 98.415 89C98.415 125.819 128.263 155.667 165.082 155.667Z" fill="#EFEFEF"/>
<path d="M177.154 115.307H147.94V130.703H177.154V115.307Z" fill="url(#paint0_linear)"/>
<path d="M222.95 123.202H102.047C99.7765 123.202 98 121.425 98 119.155V46.811C98 44.5409 99.7765 42.7644 102.047 42.7644H222.95C225.22 42.7644 226.996 44.5409 226.996 46.811V119.057C227.095 121.425 225.22 123.202 222.95 123.202Z" fill="url(#paint1_linear)"/>
<path d="M186.826 138.5H138.169V135.835C138.169 133.072 140.439 130.802 143.203 130.802H181.793C184.556 130.802 186.826 133.072 186.826 135.835V138.5Z" fill="#E1DFDD"/>
<path d="M220.581 49.2783H104.415V111.556H220.581V49.2783Z" fill="#FAF9F8" stroke="#E1DFDD" stroke-width="0.275752" stroke-miterlimit="10"/>
<path d="M162.251 119.452C163.614 119.452 164.719 118.347 164.719 116.984C164.719 115.622 163.614 114.517 162.251 114.517C160.889 114.517 159.784 115.622 159.784 116.984C159.784 118.347 160.889 119.452 162.251 119.452Z" fill="white"/>
<path d="M162.495 99.4347C172.569 99.4347 180.736 91.2679 180.736 81.1936C180.736 71.1193 172.569 62.9525 162.495 62.9525C152.421 62.9525 144.254 71.1193 144.254 81.1936C144.254 91.2679 152.421 99.4347 162.495 99.4347Z" fill="#66AEE5"/>
<mask id="mask0" mask-type="alpha" maskUnits="userSpaceOnUse" x="144" y="62" width="37" height="38">
<path d="M162.495 99.4348C172.569 99.4348 180.736 91.268 180.736 81.1937C180.736 71.1194 172.569 62.9526 162.495 62.9526C152.421 62.9526 144.254 71.1194 144.254 81.1937C144.254 91.268 152.421 99.4348 162.495 99.4348Z" fill="#66AEE5"/>
</mask>
<g mask="url(#mask0)">
<path d="M142.57 73.4014C144.252 71.4534 149.477 67.9114 152.487 69.948C155.232 71.719 155.675 75.7037 153.461 77.4747C149.919 80.3082 146.82 82.9647 148.06 85.267C150.008 88.8975 154.435 85.3555 157.623 83.7616C160.811 82.1678 168.603 80.1311 169.931 87.3036C171.26 94.4761 164.353 93.9448 166.478 103.42C168.603 112.894 166.212 102.888 163.025 100.409C159.925 97.9295 160.811 89.6944 154.435 89.4288C151.336 89.3402 145.226 91.2883 142.393 85.7097C139.559 80.1311 142.57 73.4014 142.57 73.4014Z" fill="#2C89D9"/>
<path d="M162.494 60.2076C159.041 62.4214 160.015 64.9007 161.432 65.6091C163.911 66.7603 167.63 63.5725 166.479 62.2443C165.328 60.916 162.494 60.2076 162.494 60.2076Z" fill="url(#paint2_linear)"/>
<path d="M171.436 62.864C170.462 64.8121 168.336 64.3693 165.326 67.2915C162.315 70.2136 161.872 77.4746 170.727 77.2089C183.744 76.8547 178.697 91.8195 178.697 91.8195C178.697 91.8195 189.765 82.4333 188.348 79.6883C186.932 77.0318 171.436 62.864 171.436 62.864Z" fill="#2C89D9"/>
</g>
<path d="M169.136 59.7648C166.302 59.8533 164 62.1556 163.823 64.9892C163.734 66.2288 164.177 67.38 164.797 68.2655L168.427 73.5784C168.782 74.1097 169.578 74.1097 169.933 73.5784L173.652 68.354C174.272 67.4685 174.714 66.4059 174.714 65.2548C174.803 62.2441 172.235 59.7648 169.136 59.7648Z" fill="#FCB913"/>
<path d="M169.313 66.9372C170.291 66.9372 171.084 66.1443 171.084 65.1662C171.084 64.1882 170.291 63.3953 169.313 63.3953C168.335 63.3953 167.542 64.1882 167.542 65.1662C167.542 66.1443 168.335 66.9372 169.313 66.9372Z" fill="white"/>
<path d="M233.72 138.4H201.658C199.661 138.4 197.963 136.702 197.963 134.705V73.2786C197.963 71.281 199.661 69.583 201.658 69.583H233.72C235.717 69.583 237.415 71.281 237.415 73.2786V134.705C237.415 136.802 235.817 138.4 233.72 138.4Z" fill="url(#paint3_linear)"/>
<path d="M237.414 76.2748H197.962V129.411H237.414V76.2748Z" fill="url(#paint4_linear)"/>
<path d="M221.635 135.604H214.044C213.345 135.604 212.745 135.004 212.745 134.305V133.706C212.745 133.007 213.345 132.407 214.044 132.407H221.635C222.334 132.407 222.933 133.007 222.933 133.706V134.305C222.933 135.004 222.434 135.604 221.635 135.604Z" fill="white"/>
<path d="M228.125 100.845V102.643C228.125 106.239 225.229 109.135 221.633 109.135H213.643C210.047 109.135 207.151 106.239 207.151 102.643V100.845C207.151 97.2497 210.047 94.3531 213.643 94.3531H221.633C225.329 94.3531 228.125 97.2497 228.125 100.845Z" fill="#FCB913"/>
<path d="M224.128 111.433C223.828 111.533 223.629 111.533 223.329 111.533C221.431 111.533 219.933 110.034 220.033 108.137C220.033 106.239 221.531 104.741 223.429 104.841C224.228 104.841 224.927 105.14 225.526 105.54C224.028 105.839 222.93 107.138 222.93 108.736C222.73 109.835 223.329 110.833 224.128 111.433Z" fill="#FCB913"/>
<path d="M214.641 102.943C215.138 102.943 215.54 102.541 215.54 102.044C215.54 101.548 215.138 101.145 214.641 101.145C214.145 101.145 213.743 101.548 213.743 102.044C213.743 102.541 214.145 102.943 214.641 102.943Z" fill="white"/>
<path d="M217.737 102.943C218.233 102.943 218.636 102.541 218.636 102.044C218.636 101.548 218.233 101.145 217.737 101.145C217.24 101.145 216.838 101.548 216.838 102.044C216.838 102.541 217.24 102.943 217.737 102.943Z" fill="white"/>
<path d="M220.734 103.043C221.231 103.043 221.633 102.64 221.633 102.144C221.633 101.648 221.231 101.245 220.734 101.245C220.238 101.245 219.835 101.648 219.835 102.144C219.835 102.64 220.238 103.043 220.734 103.043Z" fill="white"/>
<defs>
<linearGradient id="paint0_linear" x1="162.52" y1="115.317" x2="162.52" y2="130.741" gradientUnits="userSpaceOnUse">
<stop stop-color="#C8C6C4"/>
<stop offset="0.525" stop-color="#D3D1CF"/>
<stop offset="1" stop-color="#E1DFDD"/>
</linearGradient>
<linearGradient id="paint1_linear" x1="162.521" y1="40.7215" x2="162.521" y2="157.025" gradientUnits="userSpaceOnUse">
<stop stop-color="#E1DFDD"/>
<stop offset="0.1976" stop-color="#D8D6D4"/>
<stop offset="0.6007" stop-color="#CCCAC8"/>
<stop offset="1" stop-color="#C8C6C4"/>
</linearGradient>
<linearGradient id="paint2_linear" x1="160.091" y1="63.005" x2="166.658" y2="63.005" gradientUnits="userSpaceOnUse">
<stop stop-color="#0078D4"/>
<stop offset="0.3192" stop-color="#0076D1"/>
<stop offset="0.5447" stop-color="#0071C8"/>
<stop offset="0.7412" stop-color="#0068B8"/>
<stop offset="0.9203" stop-color="#005CA3"/>
<stop offset="0.9441" stop-color="#005A9F"/>
</linearGradient>
<linearGradient id="paint3_linear" x1="217.701" y1="61.3035" x2="217.701" y2="150.05" gradientUnits="userSpaceOnUse">
<stop stop-color="#E1DFDD"/>
<stop offset="0.456" stop-color="#D4D2D0"/>
<stop offset="1" stop-color="#C8C6C4"/>
</linearGradient>
<linearGradient id="paint4_linear" x1="217.699" y1="34.9494" x2="217.699" y2="202.867" gradientUnits="userSpaceOnUse">
<stop stop-color="#2C89D9"/>
<stop offset="1" stop-color="#66AEE5"/>
</linearGradient>
</defs>
</svg>
