<svg width="24" height="25" viewBox="0 0 24 25" fill="none" xmlns="http://www.w3.org/2000/svg">
<g filter="url(#filter0_dd)">
<path d="M4.5 10.9999V6.47784C7.07735 6.32576 9.58084 5.3882 12 3.67773C14.4192 5.3882 16.9227 6.32576 19.5 6.47784V10.9999C19.5 15.2555 17.0466 18.3788 12 20.4418C6.95337 18.3788 4.5 15.2555 4.5 10.9999Z" fill="#4FAEE7"/>
<line x1="12.0714" y1="3.71484" x2="12.0714" y2="21.3991" stroke="white"/>
<line x1="3.79016" y1="12.1318" x2="20.2112" y2="12.1318" stroke="white"/>
<path d="M3 5.75C3 5.33579 3.33579 5 3.75 5C6.41341 5 9.00797 4.05652 11.55 2.15C11.8167 1.95 12.1833 1.95 12.45 2.15C14.992 4.05652 17.5866 5 20.25 5C20.6642 5 21 5.33579 21 5.75V11C21 16.0012 18.0424 19.6757 12.2749 21.9478C12.0982 22.0174 11.9018 22.0174 11.7251 21.9478C5.95756 19.6757 3 16.0012 3 11V5.75ZM4.5 6.47793V11C4.5 15.2556 6.95337 18.3789 12 20.4419C17.0466 18.3789 19.5 15.2556 19.5 11V6.47793C16.9227 6.32585 14.4192 5.38828 12 3.67782C9.58084 5.38828 7.07735 6.32585 4.5 6.47793Z" fill="#2279C2"/>
</g>
<defs>
<filter id="filter0_dd" x="-1.8" y="-1" width="27.6" height="27.6" filterUnits="userSpaceOnUse" color-interpolation-filters="sRGB">
<feFlood flood-opacity="0" result="BackgroundImageFix"/>
<feColorMatrix in="SourceAlpha" type="matrix" values="0 0 0 0 0 0 0 0 0 0 0 0 0 0 0 0 0 0 127 0" result="hardAlpha"/>
<feOffset dy="0.8"/>
<feGaussianBlur stdDeviation="0.9"/>
<feColorMatrix type="matrix" values="0 0 0 0 0 0 0 0 0 0 0 0 0 0 0 0 0 0 0.13 0"/>
<feBlend mode="normal" in2="BackgroundImageFix" result="effect1_dropShadow"/>
<feColorMatrix in="SourceAlpha" type="matrix" values="0 0 0 0 0 0 0 0 0 0 0 0 0 0 0 0 0 0 127 0" result="hardAlpha"/>
<feOffset dy="0.15"/>
<feGaussianBlur stdDeviation="0.225"/>
<feColorMatrix type="matrix" values="0 0 0 0 0 0 0 0 0 0 0 0 0 0 0 0 0 0 0.1 0"/>
<feBlend mode="normal" in2="effect1_dropShadow" result="effect2_dropShadow"/>
<feBlend mode="normal" in="SourceGraphic" in2="effect2_dropShadow" result="shape"/>
</filter>
</defs>
</svg>
